<svg version="1.1" xmlns="http://www.w3.org/2000/svg" style="display: block;" viewBox="678 532 720 720" width="1254" height="1254" preserveAspectRatio="xMidYMid meet">
<defs>
	<linearGradient id="Gradient1" gradientUnits="userSpaceOnUse" x1="1057.81" y1="922.142" x2="999.23" y2="868.293">
		<stop class="stop0" offset="0" stop-opacity="1" stop-color="rgb(216,191,250)"/>
		<stop class="stop1" offset="1" stop-opacity="1" stop-color="rgb(255,255,255)"/>
	</linearGradient>
	<linearGradient id="Gradient2" gradientUnits="userSpaceOnUse" x1="932.282" y1="921.779" x2="993.329" y2="894.088">
		<stop class="stop0" offset="0" stop-opacity="1" stop-color="rgb(121,105,244)"/>
		<stop class="stop1" offset="1" stop-opacity="1" stop-color="rgb(168,151,255)"/>
	</linearGradient>
</defs>
<path transform="translate(0,0)" fill="rgb(64,76,216)" d="M 1305.81 592.164 C 1314.51 587.963 1343.99 574.675 1352.48 573.974 C 1356.82 578.561 1338.64 663.245 1337.49 677.224 C 1337.08 682.329 1332.69 709.93 1331.36 714.439 C 1328.36 724.606 1325.03 762.519 1321.35 769.754 C 1320.02 785.535 1314.18 813.719 1311.36 830.012 L 1290.89 948.499 L 1272.26 1056.11 C 1269.05 1074.41 1264.55 1121.36 1248.19 1132.88 C 1219.53 1153.06 1180.02 1164.53 1148.33 1180.02 C 1127.5 1189.44 1096.46 1203.38 1076.54 1210.57 L 1103.96 1052.12 C 1108.19 1027.46 1112.27 989.166 1122.45 966.122 C 1134.29 939.312 1173.48 928.804 1198.12 917.911 C 1210.47 912.451 1228.17 904.301 1241.3 899.808 C 1210.01 899.499 1178.7 899.448 1147.4 899.655 C 1136.05 899.682 1113.9 900.439 1103.24 899.616 C 1098.35 899.917 1094.22 900.21 1089.29 900.048 C 1087.33 898.491 1064.93 892.776 1054.52 886.805 C 1068.69 881.508 1090.83 870.722 1105.28 864.264 C 1151.63 842.147 1151.28 804.257 1159.16 759.724 L 1179.28 645.875 C 1213.22 630.123 1248.85 616.675 1283.08 601.457 C 1290.31 598.242 1298.37 594.765 1305.81 592.164 z"/>
<path transform="translate(0,0)" fill="rgb(84,93,241)" d="M 1305.81 592.164 C 1314.51 587.963 1343.99 574.675 1352.48 573.974 C 1356.82 578.561 1338.64 663.245 1337.49 677.224 C 1337.08 682.329 1332.69 709.93 1331.36 714.439 C 1328.36 724.606 1325.03 762.519 1321.35 769.754 C 1317.41 766.193 1349.81 614.968 1345.17 599.703 C 1344.53 597.569 1354.98 581.637 1351.13 576.096 C 1346.39 576.804 1335.16 581.984 1329.96 584.082 C 1333.25 591.739 1329.31 589.664 1330.31 596.385 C 1331.9 593.623 1333.29 591.274 1335.03 588.606 C 1337.82 591.044 1338.32 600.577 1336.68 604.025 C 1328.87 606.832 1335.42 597.726 1323.33 610.482 C 1320.88 629.291 1313.86 622.27 1311.04 634.457 C 1307.64 649.188 1303.86 649.332 1293.67 659.761 C 1289.72 663.829 1286.47 665.082 1286.11 671.266 C 1285.89 675.082 1279.73 681.823 1277.1 685.063 C 1269.24 694.74 1259.87 703.685 1251.4 712.89 C 1247.77 716.839 1247.44 720.367 1244.85 724.925 C 1233.93 737.752 1226.73 753.124 1215.98 766.035 C 1215.4 766.777 1211.79 768.023 1211.42 768.706 C 1201.03 787.821 1185.51 806.207 1172.21 821.715 C 1166.17 828.751 1170.64 885.879 1171.28 896.981 C 1173.82 898.771 1177.45 897.799 1181.82 898.256 C 1171.29 899.233 1134.07 899.083 1122.68 898.653 C 1119.22 898.643 1105.47 898.164 1103.24 899.616 C 1098.35 899.917 1094.22 900.21 1089.29 900.048 C 1087.33 898.491 1064.93 892.776 1054.52 886.805 C 1068.69 881.508 1090.83 870.722 1105.28 864.264 C 1151.63 842.147 1151.28 804.257 1159.16 759.724 L 1179.28 645.875 C 1213.22 630.123 1248.85 616.675 1283.08 601.457 C 1290.31 598.242 1298.37 594.765 1305.81 592.164 z"/>
<path transform="translate(0,0)" fill="rgb(150,139,252)" d="M 1105.28 864.264 L 1107.13 865.347 C 1102.61 868.606 1091.75 872.473 1085.4 876.034 C 1087.52 883.812 1088.87 892.401 1096.14 897.229 C 1102.07 901.166 1117.45 894.528 1122.68 898.653 C 1119.22 898.643 1105.47 898.164 1103.24 899.616 C 1098.35 899.917 1094.22 900.21 1089.29 900.048 C 1087.33 898.491 1064.93 892.776 1054.52 886.805 C 1068.69 881.508 1090.83 870.722 1105.28 864.264 z"/>
<path transform="translate(0,0)" fill="rgb(64,76,216)" d="M 780.671 852.688 L 801.33 733.903 C 816.188 648.784 809.458 657.03 888.051 623.653 L 1001.36 576.225 C 1000.18 591.408 995.423 615.525 992.721 631.257 L 976.101 726.899 L 966.869 781.569 C 965.112 792.104 962.8 808.685 959.522 818.387 C 955.636 829.742 948.944 839.931 940.067 848.009 C 931.678 857.935 916.989 863.463 905.06 868.073 C 881.025 877.36 857.284 888.144 833.254 897.315 C 847.173 898.741 860.615 898.574 874.592 898.427 C 905.244 896.907 940.687 898.181 972.503 897.145 L 970.457 898.747 C 973.063 900.364 978.519 900.866 981.804 901.717 C 992.041 904.372 998.487 906.48 1007.03 912.794 C 971.29 928.509 945.265 934.14 925.459 968.117 C 918.669 985.491 914.547 1018.44 911.204 1037.99 L 893.806 1136.61 C 887.416 1140.34 875.627 1144.91 868.375 1147.99 L 825.85 1166.11 L 757.874 1194.84 C 748.568 1198.72 729.63 1207.19 720.664 1209.5 L 719.403 1207.75 C 718.451 1200.75 729.106 1145.75 730.928 1135.04 L 780.671 852.688 z"/>
<path transform="translate(0,0)" fill="rgb(161,95,236)" d="M 780.671 852.688 L 801.33 733.903 C 816.188 648.784 809.458 657.03 888.051 623.653 L 1001.36 576.225 C 1000.18 591.408 995.423 615.525 992.721 631.257 L 976.101 726.899 L 966.869 781.569 C 965.112 792.104 962.8 808.685 959.522 818.387 C 955.636 829.742 948.944 839.931 940.067 848.009 L 939.009 846.829 C 943.343 841.382 951.439 832.82 951.76 826.455 C 945.703 817.801 921.299 835.745 916.287 831.061 L 915.468 827.523 C 900.469 835.287 905.294 836.85 887.509 831.739 C 885.412 831.136 876.434 837.646 873.49 836.934 C 865.583 836.987 856.425 834.747 848.66 835.386 C 831.73 836.779 818.786 846.26 801.185 842.357 C 797.826 841.612 792.155 848.021 786.378 845.57 C 783.529 849.494 782.885 853.152 781.528 857.839 L 780.671 852.688 z"/>
<path transform="translate(0,0)" fill="url(#Gradient2)" d="M 874.592 898.427 C 905.244 896.907 940.687 898.181 972.503 897.145 L 970.457 898.747 C 973.063 900.364 978.519 900.866 981.804 901.717 C 992.041 904.372 998.487 906.48 1007.03 912.794 C 971.29 928.509 945.265 934.14 925.459 968.117 L 924.08 967.97 C 924.388 961.043 940.849 942.977 940.917 943.556 C 939.316 930.117 928.751 914.913 924.701 901.374 L 924.315 900.046 C 915.051 899.864 873.288 901.302 867.366 899.612 C 869.883 899.328 872.115 898.89 874.592 898.427 z"/>
<path transform="translate(0,0)" fill="url(#Gradient1)" d="M 972.503 897.145 C 1017.34 892.465 1025.25 867.483 1029.84 828.808 C 1030.26 833.553 1030.75 838.291 1031.31 843.021 C 1033.84 862.74 1038.46 874.575 1054.52 886.805 C 1064.93 892.776 1087.33 898.491 1089.29 900.048 C 1064.98 903.6 1049.25 908.875 1037.18 932.603 C 1033.68 934.337 1032.43 937.559 1030.54 940.856 L 1028.85 941.154 C 1024.53 937.853 1025.63 937.065 1022.4 933.743 C 1015.43 923.472 1019.54 923.909 1007.03 912.794 C 998.487 906.48 992.041 904.372 981.804 901.717 C 978.519 900.866 973.063 900.364 970.457 898.747 L 972.503 897.145 z"/>
<path transform="translate(0,0)" fill="rgb(197,171,243)" d="M 1022.4 933.743 C 1025.63 937.065 1024.53 937.853 1028.85 941.154 L 1030.54 940.856 C 1032.43 937.559 1033.68 934.337 1037.18 932.603 C 1032.31 947.502 1031.01 958.425 1028.86 973.78 C 1027.78 957.253 1026.88 949.849 1022.4 933.743 z"/>
</svg>